<?xml version="1.0" encoding="utf-8"?>
<!-- Generator: Adobe Illustrator 16.0.0, SVG Export Plug-In . SVG Version: 6.00 Build 0)  -->
<!DOCTYPE svg PUBLIC "-//W3C//DTD SVG 1.1//EN" "http://www.w3.org/Graphics/SVG/1.1/DTD/svg11.dtd">
<svg version="1.1" id="Layer_1" xmlns="http://www.w3.org/2000/svg" xmlns:xlink="http://www.w3.org/1999/xlink" x="0px" y="0px"
	 width="326.575px" height="116.392px" viewBox="0 0 326.575 116.392" enable-background="new 0 0 326.575 116.392"
	 xml:space="preserve">
<path fill="#FFFFFF" d="M36.024,116.344c-9.73-0.386-17.694-3.048-23.917-7.994c-1.188-0.944-4.019-3.779-4.968-4.973
	c-2.525-3.174-4.24-6.262-5.386-9.691c-3.522-10.551-1.708-24.395,5.185-39.59C12.84,41.089,21.951,28.188,37.843,10.32
	C40.184,7.69,47.156,0,47.2,0c0.016,0-0.361,0.658-0.84,1.461c-4.133,6.922-7.669,15.074-9.595,22.133
	c-3.094,11.324-2.721,21.042,1.093,28.579c2.631,5.191,7.141,9.688,12.213,12.175c8.879,4.351,21.878,4.712,37.754,1.054
	c1.094-0.254,55.255-14.631,120.36-31.951C273.291,16.129,326.569,1.966,326.575,1.979c0.02,0.017-151.257,64.749-229.786,98.33
	c-12.438,5.317-15.764,6.661-21.608,8.712C60.233,114.269,46.845,116.775,36.024,116.344z"/>
</svg>
